<?xml version="1.0" encoding="UTF-8" standalone="no"?>

<svg xmlns="http://www.w3.org/2000/svg" width="1500" height="1000">

	<rect x="0" y="0" width="1500" height="400" style="fill:#3366ff" />

	<rect x="0" y="400" width="1500" height="600" style="fill:#a3a3c2" />

	<rect x="200" y="200" width="1000" height="300" rx="10" ry="10" stroke="orange"
		stroke-width="3" fill="#e6ac00" />

		<circle cx="40" cy="40" r="50" fill="yellow"></circle>

		<defs>
			<linearGradient id="grad1" x1="0%" y1="50%" x2="0%" y2="100%">
				<stop offset="0%" style="stop-color:rgb(0,0,0);stop-opacity:1" />
				<stop offset="100%" style="stop-color:rgb(255, 255, 255);stop-opacity:0.5" />
			</linearGradient>
		</defs>
		<rect x="300" y="350" width="100" height="150" ry="5"
			fill="url(#grad1)" />

			<defs>
				<linearGradient id="grad1" x1="0%" y1="50%" x2="0%" y2="100%">
					<stop offset="0%" style="stop-color:rgb(0,0,0);stop-opacity:1" />
					<stop offset="100%" style="stop-color:rgb(255, 255, 255);stop-opacity:0.5" />
				</linearGradient>
			</defs>
			<rect x="600" y="350" width="100" height="150" ry="5"
				fill="url(#grad1)" />

				<defs>
					<linearGradient id="grad1" x1="0%" y1="50%" x2="0%" y2="100%">
						<stop offset="0%" style="stop-color:rgb(0,0,0);stop-opacity:1" />
						<stop offset="100%" style="stop-color:rgb(255, 255, 255);stop-opacity:0.5" />
					</linearGradient>
				</defs>
				<rect x="900" y="350" width="100" height="150" ry="5"
					fill="url(#grad1)" />


					<polygon points="1200,200 1350,150 1345,400 1200,500" 
						style="fill:#e6ac00; stroke:orange; stroke-width:3;" />

						<polygon points="300,150 1350,150 1200,200 200,200" 
							style="fill:#e6ac00; stroke:orange; stroke-width:3;" />

							<ellipse cx="750" cy="175" rx="450" ry="12.5" 
								style="fill:black;">

							</ellipse>
						</svg>
